<svg xmlns="http://www.w3.org/2000/svg" width="512" height="512"><path d="M226.164 462c44.059-22.615 69.745-71.211 66.968-105.376-17.644 11.991-47.522 26.563-63.338 31.558 17.717 28.197 12.942 51.787-3.63 73.818zm-101.646-179.094c4.995-15.816 19.568-45.695 31.559-63.339-34.167-2.779-82.759 22.908-105.376 66.969 22.028-16.571 45.621-21.348 73.817-3.63zm87.283 86.293l-68.235-68.236c26.034-78.803 101.64-178.221 235.69-167.808 11.32 134.146-85.963 207.436-167.455 236.044zm47.736-90.068c7.17-7.171 7.17-18.798 0-25.969-7.172-7.17-18.797-7.17-25.969.003-7.17 7.17-7.172 18.796 0 25.966 7.171 7.171 18.797 7.171 25.969 0zm59.127-42.25c11.832-11.83 11.834-31.017.002-42.848-11.834-11.831-31.018-11.831-42.85 0-11.832 11.833-11.83 31.016 0 42.849 11.834 11.831 31.016 11.831 42.848-.001zm-234.811 159.632l-12.445-12.445 60.533-60.532 12.445 12.445-60.533 60.532zm62.266 30.266l-12.445-12.445 44.533-44.533 12.445 12.445-44.533 44.533zm-64 17.867l-12.445-12.446 70-69.999 12.445 12.445-70 70zm342.175-228.492c-3.231 10.579-11.512 18.858-22.09 22.09 10.578 3.231 18.858 11.511 22.09 22.09 3.231-10.579 11.511-18.858 22.09-22.09-10.579-3.231-18.859-11.511-22.09-22.09zm-250.786-111.308c-4.231 13.852-15.072 24.692-28.923 28.923 13.851 4.231 24.691 15.071 28.923 28.923 4.23-13.852 15.071-24.691 28.923-28.923-13.852-4.231-24.693-15.072-28.923-28.923zm-31.257-54.846c-3.394 11.108-12.088 19.802-23.195 23.194 11.107 3.394 19.802 12.087 23.195 23.195 3.393-11.108 12.086-19.802 23.194-23.195-11.108-3.392-19.801-12.086-23.194-23.194zm92.186 0c-5.413 17.723-19.284 31.593-37.006 37.006 17.722 5.413 31.593 19.284 37.006 37.006 5.413-17.722 19.284-31.592 37.006-37.006-17.722-5.412-31.593-19.283-37.006-37.006zm189.857 233.418c-5.413 17.723-19.285 31.593-37.006 37.006 17.721 5.413 31.593 19.284 37.006 37.006 5.413-17.722 19.284-31.592 37.006-37.006-17.722-5.412-31.593-19.283-37.006-37.006z"/></svg>